# xmcd CD database file
#
# Track frame offsets:
#	150
#	30592
#	54040
#	79731
#	82596
#	102984
#	126518
#	127722
#	153051
#	154564
#	161604
#
# Disc length: 2198 seconds
#
# Revision: 2
# Processed by: cddbd v1.5.2PL0 Copyright (c) Steve Scherf et al.
# Submitted via: CDex 1.51
#
DISCID=6a08940b
DTITLE=Ron George (The Tortoise) - The Tort's Tornadoes at Johnny Icecream's
DYEAR=1977
DGENRE=Jazz
TTITLE0=Am I Blue
TTITLE1=Baby Won't You Please Come Home
TTITLE2=Hindustan
TTITLE3=Iterlude - I'll Take Romance
TTITLE4=Ja-Da
TTITLE5=Sweet Sue
TTITLE6=aborted intro
TTITLE7=Georgia On My Mind
TTITLE8=Brandivino interlude
TTITLE9=A Handfull Of Keys
TTITLE10=Epilogue
EXTD=YEAR: 1977
EXTT0=
EXTT1=
EXTT2=
EXTT3=
EXTT4=
EXTT5=
EXTT6=
EXTT7=
EXTT8=
EXTT9=
EXTT10=
PLAYORDER=
